M48
; DRILL file {KiCad 8.0.0} date 2024-02-27T22:23:21-0800
; FORMAT={-:-/ absolute / inch / decimal}
; #@! TF.CreationDate,2024-02-27T22:23:21-08:00
; #@! TF.GenerationSoftware,Kicad,Pcbnew,8.0.0
; #@! TF.FileFunction,MixedPlating,1,2
FMAT,2
INCH
; #@! TA.AperFunction,Plated,PTH,ViaDrill
T1C0.0118
; #@! TA.AperFunction,Plated,PTH,ComponentDrill
T2C0.0217
; #@! TA.AperFunction,Plated,PTH,ComponentDrill
T3C0.0335
; #@! TA.AperFunction,Plated,PTH,ComponentDrill
T4C0.0394
; #@! TA.AperFunction,NonPlated,NPTH,ComponentDrill
T5C0.0315
; #@! TA.AperFunction,NonPlated,NPTH,ComponentDrill
T6C0.0354
; #@! TA.AperFunction,NonPlated,NPTH,ComponentDrill
T7C0.0866
%
G90
G05
T1
X2.982Y-3.312
X3.152Y-3.644
X3.248Y-3.386
X3.256Y-3.732
X3.258Y-3.676
X3.258Y-3.786
X3.362Y-3.62
X3.402Y-3.376
X3.512Y-4.012
X3.536Y-3.526
X3.546Y-3.744
X3.552Y-3.384
X3.568Y-4.012
X3.674Y-3.944
X3.73Y-3.6
X3.742Y-3.944
X3.916Y-3.408
X4.02Y-3.764
X4.02Y-3.806
X4.056Y-3.964
X4.092Y-3.966
X4.188Y-3.952
X4.24Y-3.38
X4.346Y-3.888
T4
X3.272Y-2.984
X3.372Y-2.984
X3.412Y-4.23
X3.472Y-2.984
X3.512Y-4.23
X3.572Y-2.984
X3.612Y-4.23
X3.712Y-4.23
X3.796Y-2.986
X3.896Y-2.986
X3.996Y-2.986
X4.096Y-2.986
T5
X4.3388Y-3.3328
X4.3388Y-3.5296
T6
X2.8603Y-3.3426
X2.8603Y-3.4608
T7
X2.9Y-3.0
X2.9Y-4.2
X4.4Y-3.0
X4.4Y-4.2
T2
G00X4.4343Y-3.2786
M15
G01X4.4598Y-3.2786
M16
G05
G00X4.4343Y-3.5837
M15
G01X4.4598Y-3.5837
M16
G05
T3
G00X4.2866Y-3.2845
M15
G01X4.3083Y-3.2845
M16
G05
G00X4.2866Y-3.5778
M15
G01X4.3083Y-3.5778
M16
G05
M30
