M48
; DRILL file {KiCad 8.0.0} date 2024-03-08T02:50:54-0800
; FORMAT={-:-/ absolute / inch / decimal}
; #@! TF.CreationDate,2024-03-08T02:50:54-08:00
; #@! TF.GenerationSoftware,Kicad,Pcbnew,8.0.0
; #@! TF.FileFunction,Plated,1,2,PTH
FMAT,2
INCH
; #@! TA.AperFunction,Plated,PTH,ViaDrill
T1C0.0118
; #@! TA.AperFunction,Plated,PTH,ComponentDrill
T2C0.0236
; #@! TA.AperFunction,Plated,PTH,ComponentDrill
T3C0.0394
%
G90
G05
T1
X2.4921Y-3.6024
X2.5039Y-3.7598
X2.5276Y-3.563
X2.6457Y-3.7402
X2.7205Y-3.689
X2.7835Y-3.6378
X2.8307Y-3.3583
X2.8307Y-3.5118
X2.8622Y-3.8701
X2.9016Y-3.9409
X2.9094Y-3.5591
X2.9331Y-3.815
X2.9724Y-3.9213
X2.9843Y-3.7598
X3.0757Y-3.2058
X3.0945Y-3.3701
X3.1575Y-3.5354
X3.1772Y-3.8583
X3.3819Y-3.2559
X3.4291Y-3.4921
X3.5065Y-3.2047
X3.6063Y-3.5
X3.6378Y-3.9134
X3.6457Y-3.4134
X3.6496Y-3.3701
X3.6496Y-3.815
X3.6772Y-3.2992
X3.689Y-3.8583
X3.7598Y-3.3937
X3.7756Y-3.4246
X3.815Y-3.0394
X3.8543Y-3.3189
X4.2835Y-3.0433
X4.3819Y-3.9094
T3
X2.48Y-2.92
X2.48Y-4.34
X2.58Y-2.92
X2.58Y-4.34
X2.68Y-2.92
X2.68Y-4.34
X2.78Y-2.92
X2.78Y-4.34
X2.88Y-2.92
X2.88Y-4.34
X2.98Y-2.92
X2.98Y-4.34
X3.08Y-2.92
X3.08Y-4.34
X3.18Y-2.92
X3.18Y-4.34
X3.28Y-2.92
X3.28Y-4.34
X3.38Y-2.92
X3.38Y-4.34
X3.48Y-2.92
X3.48Y-4.34
X3.58Y-2.92
X3.58Y-4.34
X3.68Y-2.92
X3.68Y-4.34
X3.78Y-2.92
X3.78Y-4.34
X3.88Y-2.92
X3.88Y-4.34
X3.98Y-2.92
X3.98Y-4.34
X4.08Y-2.92
X4.08Y-4.34
X4.18Y-2.92
X4.18Y-4.34
X4.28Y-2.92
X4.28Y-4.34
X4.38Y-2.92
X4.38Y-4.34
X4.59Y-3.4
X4.59Y-3.5
X4.59Y-3.6
X4.59Y-3.7
T2
G00X2.2734Y-3.4599
M15
G01X2.2419Y-3.4599
M16
G05
G00X2.2734Y-3.8001
M15
G01X2.2419Y-3.8001
M16
G05
G00X2.4439Y-3.4599
M15
G01X2.4006Y-3.4599
M16
G05
G00X2.4439Y-3.8001
M15
G01X2.4006Y-3.8001
M16
G05
M30
