%TF.GenerationSoftware,KiCad,Pcbnew,8.0.0*%
%TF.CreationDate,2024-03-08T02:50:51-08:00*%
%TF.ProjectId,blackpill,626c6163-6b70-4696-9c6c-2e6b69636164,rev?*%
%TF.SameCoordinates,Original*%
%TF.FileFunction,Copper,L1,Top*%
%TF.FilePolarity,Positive*%
%FSLAX46Y46*%
G04 Gerber Fmt 4.6, Leading zero omitted, Abs format (unit mm)*
G04 Created by KiCad (PCBNEW 8.0.0) date 2024-03-08 02:50:51*
%MOMM*%
%LPD*%
G01*
G04 APERTURE LIST*
G04 Aperture macros list*
%AMRoundRect*
0 Rectangle with rounded corners*
0 $1 Rounding radius*
0 $2 $3 $4 $5 $6 $7 $8 $9 X,Y pos of 4 corners*
0 Add a 4 corners polygon primitive as box body*
4,1,4,$2,$3,$4,$5,$6,$7,$8,$9,$2,$3,0*
0 Add four circle primitives for the rounded corners*
1,1,$1+$1,$2,$3*
1,1,$1+$1,$4,$5*
1,1,$1+$1,$6,$7*
1,1,$1+$1,$8,$9*
0 Add four rect primitives between the rounded corners*
20,1,$1+$1,$2,$3,$4,$5,0*
20,1,$1+$1,$4,$5,$6,$7,0*
20,1,$1+$1,$6,$7,$8,$9,0*
20,1,$1+$1,$8,$9,$2,$3,0*%
G04 Aperture macros list end*
%TA.AperFunction,ComponentPad*%
%ADD10O,1.800000X1.000000*%
%TD*%
%TA.AperFunction,ComponentPad*%
%ADD11O,2.100000X1.000000*%
%TD*%
%TA.AperFunction,SMDPad,CuDef*%
%ADD12RoundRect,0.150000X-0.425000X0.150000X-0.425000X-0.150000X0.425000X-0.150000X0.425000X0.150000X0*%
%TD*%
%TA.AperFunction,SMDPad,CuDef*%
%ADD13RoundRect,0.075000X-0.500000X0.075000X-0.500000X-0.075000X0.500000X-0.075000X0.500000X0.075000X0*%
%TD*%
%TA.AperFunction,SMDPad,CuDef*%
%ADD14RoundRect,0.375000X-0.375000X0.625000X-0.375000X-0.625000X0.375000X-0.625000X0.375000X0.625000X0*%
%TD*%
%TA.AperFunction,SMDPad,CuDef*%
%ADD15RoundRect,0.500000X-1.400000X0.500000X-1.400000X-0.500000X1.400000X-0.500000X1.400000X0.500000X0*%
%TD*%
%TA.AperFunction,SMDPad,CuDef*%
%ADD16RoundRect,0.250000X-0.250000X-0.475000X0.250000X-0.475000X0.250000X0.475000X-0.250000X0.475000X0*%
%TD*%
%TA.AperFunction,SMDPad,CuDef*%
%ADD17R,1.800000X2.100000*%
%TD*%
%TA.AperFunction,SMDPad,CuDef*%
%ADD18RoundRect,0.140000X-0.170000X0.140000X-0.170000X-0.140000X0.170000X-0.140000X0.170000X0.140000X0*%
%TD*%
%TA.AperFunction,SMDPad,CuDef*%
%ADD19RoundRect,0.225000X-0.225000X-0.250000X0.225000X-0.250000X0.225000X0.250000X-0.225000X0.250000X0*%
%TD*%
%TA.AperFunction,SMDPad,CuDef*%
%ADD20RoundRect,0.135000X-0.135000X-0.185000X0.135000X-0.185000X0.135000X0.185000X-0.135000X0.185000X0*%
%TD*%
%TA.AperFunction,SMDPad,CuDef*%
%ADD21RoundRect,0.075000X-0.662500X-0.075000X0.662500X-0.075000X0.662500X0.075000X-0.662500X0.075000X0*%
%TD*%
%TA.AperFunction,SMDPad,CuDef*%
%ADD22RoundRect,0.075000X-0.075000X-0.662500X0.075000X-0.662500X0.075000X0.662500X-0.075000X0.662500X0*%
%TD*%
%TA.AperFunction,SMDPad,CuDef*%
%ADD23RoundRect,0.140000X-0.140000X-0.170000X0.140000X-0.170000X0.140000X0.170000X-0.140000X0.170000X0*%
%TD*%
%TA.AperFunction,SMDPad,CuDef*%
%ADD24RoundRect,0.135000X0.135000X0.185000X-0.135000X0.185000X-0.135000X-0.185000X0.135000X-0.185000X0*%
%TD*%
%TA.AperFunction,SMDPad,CuDef*%
%ADD25RoundRect,0.135000X-0.185000X0.135000X-0.185000X-0.135000X0.185000X-0.135000X0.185000X0.135000X0*%
%TD*%
%TA.AperFunction,SMDPad,CuDef*%
%ADD26RoundRect,0.218750X-0.256250X0.218750X-0.256250X-0.218750X0.256250X-0.218750X0.256250X0.218750X0*%
%TD*%
%TA.AperFunction,SMDPad,CuDef*%
%ADD27R,1.500000X0.700000*%
%TD*%
%TA.AperFunction,SMDPad,CuDef*%
%ADD28R,0.800000X1.000000*%
%TD*%
%TA.AperFunction,SMDPad,CuDef*%
%ADD29RoundRect,0.140000X0.140000X0.170000X-0.140000X0.170000X-0.140000X-0.170000X0.140000X-0.170000X0*%
%TD*%
%TA.AperFunction,ComponentPad*%
%ADD30R,1.700000X1.700000*%
%TD*%
%TA.AperFunction,ComponentPad*%
%ADD31O,1.700000X1.700000*%
%TD*%
%TA.AperFunction,SMDPad,CuDef*%
%ADD32RoundRect,0.250000X0.475000X-0.250000X0.475000X0.250000X-0.475000X0.250000X-0.475000X-0.250000X0*%
%TD*%
%TA.AperFunction,ViaPad*%
%ADD33C,0.600000*%
%TD*%
%TA.AperFunction,Conductor*%
%ADD34C,0.300000*%
%TD*%
%TA.AperFunction,Conductor*%
%ADD35C,0.200000*%
%TD*%
G04 APERTURE END LIST*
D10*
%TO.P,J1,S1,SHIELD*%
%TO.N,GND*%
X57345000Y-96522000D03*
D11*
X61525000Y-96522000D03*
D10*
X57345000Y-87882000D03*
D11*
X61525000Y-87882000D03*
D12*
%TO.P,J1,B12,GND*%
X62100000Y-89002000D03*
%TO.P,J1,B9,VBUS*%
%TO.N,+5V*%
X62100000Y-89802000D03*
D13*
%TO.P,J1,B8*%
%TO.N,N/C*%
X62100000Y-90452000D03*
%TO.P,J1,B7,D-*%
%TO.N,USB_D-*%
X62100000Y-91452000D03*
%TO.P,J1,B6,D+*%
%TO.N,USB_D+*%
X62100000Y-92952000D03*
%TO.P,J1,B5,CC2*%
%TO.N,Net-(J1-CC2)*%
X62100000Y-93952000D03*
D12*
%TO.P,J1,B4,VBUS*%
%TO.N,+5V*%
X62100000Y-94602000D03*
%TO.P,J1,B1,GND*%
%TO.N,GND*%
X62100000Y-95402000D03*
%TO.P,J1,A12,GND*%
X62100000Y-95402000D03*
%TO.P,J1,A9,VBUS*%
%TO.N,+5V*%
X62100000Y-94602000D03*
D13*
%TO.P,J1,A8*%
%TO.N,N/C*%
X62100000Y-93452000D03*
%TO.P,J1,A7,D-*%
%TO.N,USB_D-*%
X62100000Y-92452000D03*
%TO.P,J1,A6,D+*%
%TO.N,USB_D+*%
X62100000Y-91952000D03*
%TO.P,J1,A5,CC1*%
%TO.N,Net-(J1-CC1)*%
X62100000Y-90952000D03*
D12*
%TO.P,J1,A4,VBUS*%
%TO.N,+5V*%
X62100000Y-89802000D03*
%TO.P,J1,A1,GND*%
%TO.N,GND*%
X62100000Y-89002000D03*
%TD*%
D14*
%TO.P,U1,3,VI*%
%TO.N,+5V*%
X68100000Y-96350000D03*
D15*
%TO.P,U1,2,VO*%
%TO.N,+3.3V*%
X70400000Y-102650000D03*
D14*
X70400000Y-96350000D03*
%TO.P,U1,1,GND*%
%TO.N,GND*%
X72700000Y-96350000D03*
%TD*%
D16*
%TO.P,C1,1*%
%TO.N,+5V*%
X71900000Y-93600000D03*
%TO.P,C1,2*%
%TO.N,GND*%
X73800000Y-93600000D03*
%TD*%
D17*
%TO.P,Y1,1,1*%
%TO.N,/HSE_IN*%
X75900000Y-87400000D03*
%TO.P,Y1,2,2*%
%TO.N,GND*%
X75900000Y-90300000D03*
%TO.P,Y1,3,3*%
%TO.N,/HSE_OUT*%
X78200000Y-90300000D03*
%TO.P,Y1,4,4*%
%TO.N,GND*%
X78200000Y-87400000D03*
%TD*%
D18*
%TO.P,C6,1*%
%TO.N,+3.3V*%
X96900000Y-83420000D03*
%TO.P,C6,2*%
%TO.N,GND*%
X96900000Y-84380000D03*
%TD*%
D19*
%TO.P,C3,1*%
%TO.N,+3.3V*%
X83525000Y-80800000D03*
%TO.P,C3,2*%
%TO.N,GND*%
X85075000Y-80800000D03*
%TD*%
D20*
%TO.P,R5,1*%
%TO.N,+3.3V*%
X93500000Y-100200000D03*
%TO.P,R5,2*%
%TO.N,I2C2_SDA*%
X94520000Y-100200000D03*
%TD*%
D21*
%TO.P,U2,1,VBAT*%
%TO.N,+3.3V*%
X85753500Y-85134000D03*
%TO.P,U2,2,PC13*%
%TO.N,PC13*%
X85753500Y-85634000D03*
%TO.P,U2,3,PC14*%
%TO.N,PC14*%
X85753500Y-86134000D03*
%TO.P,U2,4,PC15*%
%TO.N,PC15*%
X85753500Y-86634000D03*
%TO.P,U2,5,PD0*%
%TO.N,/HSE_IN*%
X85753500Y-87134000D03*
%TO.P,U2,6,PD1*%
%TO.N,/HSE_OUT*%
X85753500Y-87634000D03*
%TO.P,U2,7,NRST*%
%TO.N,/NRST*%
X85753500Y-88134000D03*
%TO.P,U2,8,VSSA*%
%TO.N,GND*%
X85753500Y-88634000D03*
%TO.P,U2,9,VDDA*%
%TO.N,+3.3VA*%
X85753500Y-89134000D03*
%TO.P,U2,10,PA0*%
%TO.N,PA0*%
X85753500Y-89634000D03*
%TO.P,U2,11,PA1*%
%TO.N,PA1*%
X85753500Y-90134000D03*
%TO.P,U2,12,PA2*%
%TO.N,PA2*%
X85753500Y-90634000D03*
D22*
%TO.P,U2,13,PA3*%
%TO.N,PA3*%
X87166000Y-92046500D03*
%TO.P,U2,14,PA4*%
%TO.N,PA4*%
X87666000Y-92046500D03*
%TO.P,U2,15,PA5*%
%TO.N,PA5*%
X88166000Y-92046500D03*
%TO.P,U2,16,PA6*%
%TO.N,PA6*%
X88666000Y-92046500D03*
%TO.P,U2,17,PA7*%
%TO.N,PA7*%
X89166000Y-92046500D03*
%TO.P,U2,18,PB0*%
%TO.N,PB0*%
X89666000Y-92046500D03*
%TO.P,U2,19,PB1*%
%TO.N,PB1*%
X90166000Y-92046500D03*
%TO.P,U2,20,PB2*%
%TO.N,PB2*%
X90666000Y-92046500D03*
%TO.P,U2,21,PB10*%
%TO.N,I2C2_SCL*%
X91166000Y-92046500D03*
%TO.P,U2,22,PB11*%
%TO.N,I2C2_SDA*%
X91666000Y-92046500D03*
%TO.P,U2,23,VSS*%
%TO.N,GND*%
X92166000Y-92046500D03*
%TO.P,U2,24,VDD*%
%TO.N,+3.3V*%
X92666000Y-92046500D03*
D21*
%TO.P,U2,25,PB12*%
%TO.N,PB12*%
X94078500Y-90634000D03*
%TO.P,U2,26,PB13*%
%TO.N,PB13*%
X94078500Y-90134000D03*
%TO.P,U2,27,PB14*%
%TO.N,PB14*%
X94078500Y-89634000D03*
%TO.P,U2,28,PB15*%
%TO.N,PB15*%
X94078500Y-89134000D03*
%TO.P,U2,29,PA8*%
%TO.N,PA8*%
X94078500Y-88634000D03*
%TO.P,U2,30,PA9*%
%TO.N,PA9*%
X94078500Y-88134000D03*
%TO.P,U2,31,PA10*%
%TO.N,PA10*%
X94078500Y-87634000D03*
%TO.P,U2,32,PA11*%
%TO.N,USB_D-*%
X94078500Y-87134000D03*
%TO.P,U2,33,PA12*%
%TO.N,USB_D+*%
X94078500Y-86634000D03*
%TO.P,U2,34,PA13*%
%TO.N,SWDIO*%
X94078500Y-86134000D03*
%TO.P,U2,35,VSS*%
%TO.N,GND*%
X94078500Y-85634000D03*
%TO.P,U2,36,VDD*%
%TO.N,+3.3V*%
X94078500Y-85134000D03*
D22*
%TO.P,U2,37,PA14*%
%TO.N,SWCLK*%
X92666000Y-83721500D03*
%TO.P,U2,38,PA15*%
%TO.N,PA15*%
X92166000Y-83721500D03*
%TO.P,U2,39,PB3*%
%TO.N,PB3*%
X91666000Y-83721500D03*
%TO.P,U2,40,PB4*%
%TO.N,PB4*%
X91166000Y-83721500D03*
%TO.P,U2,41,PB5*%
%TO.N,PB5*%
X90666000Y-83721500D03*
%TO.P,U2,42,PB6*%
%TO.N,USART1_TX*%
X90166000Y-83721500D03*
%TO.P,U2,43,PB7*%
%TO.N,USART1_RX*%
X89666000Y-83721500D03*
%TO.P,U2,44,BOOT0*%
%TO.N,Net-(U2-BOOT0)*%
X89166000Y-83721500D03*
%TO.P,U2,45,PB8*%
%TO.N,PB8*%
X88666000Y-83721500D03*
%TO.P,U2,46,PB9*%
%TO.N,PB9*%
X88166000Y-83721500D03*
%TO.P,U2,47,VSS*%
%TO.N,GND*%
X87666000Y-83721500D03*
%TO.P,U2,48,VDD*%
%TO.N,+3.3V*%
X87166000Y-83721500D03*
%TD*%
D23*
%TO.P,C4,1*%
%TO.N,+3.3V*%
X83779000Y-82324000D03*
%TO.P,C4,2*%
%TO.N,GND*%
X84739000Y-82324000D03*
%TD*%
D20*
%TO.P,R2,1*%
%TO.N,/SW_BOOT0*%
X75980000Y-81400000D03*
%TO.P,R2,2*%
%TO.N,Net-(U2-BOOT0)*%
X77000000Y-81400000D03*
%TD*%
D24*
%TO.P,R4,1*%
%TO.N,+3.3V*%
X92500000Y-100200000D03*
%TO.P,R4,2*%
%TO.N,I2C2_SCL*%
X91480000Y-100200000D03*
%TD*%
D25*
%TO.P,R3,1*%
%TO.N,+3.3V*%
X96900000Y-85690000D03*
%TO.P,R3,2*%
%TO.N,USB_D-*%
X96900000Y-86710000D03*
%TD*%
D26*
%TO.P,D1,1,K*%
%TO.N,/PWR_LED_K*%
X77612000Y-102291000D03*
%TO.P,D1,2,A*%
%TO.N,+3.3V*%
X77612000Y-103866000D03*
%TD*%
D24*
%TO.P,R7,1*%
%TO.N,GND*%
X67110000Y-94000000D03*
%TO.P,R7,2*%
%TO.N,Net-(J1-CC2)*%
X66090000Y-94000000D03*
%TD*%
D27*
%TO.P,SW1,3,C*%
%TO.N,+3.3V*%
X58630000Y-84150000D03*
%TO.P,SW1,2,B*%
%TO.N,/SW_BOOT0*%
X58630000Y-82650000D03*
%TO.P,SW1,1,A*%
%TO.N,GND*%
X58630000Y-79650000D03*
D28*
%TO.P,SW1,*%
%TO.N,*%
X55770000Y-85550000D03*
X57980000Y-85550000D03*
X55770000Y-78250000D03*
X57980000Y-78250000D03*
%TD*%
D29*
%TO.P,C7,1*%
%TO.N,+3.3V*%
X93670000Y-94327300D03*
%TO.P,C7,2*%
%TO.N,GND*%
X92710000Y-94327300D03*
%TD*%
D24*
%TO.P,R6,1*%
%TO.N,GND*%
X67110000Y-91100000D03*
%TO.P,R6,2*%
%TO.N,Net-(J1-CC1)*%
X66090000Y-91100000D03*
%TD*%
D29*
%TO.P,C10,1*%
%TO.N,+3.3V*%
X78212000Y-96634000D03*
%TO.P,C10,2*%
%TO.N,GND*%
X77252000Y-96634000D03*
%TD*%
%TO.P,C11,1*%
%TO.N,/NRST*%
X81880000Y-89600000D03*
%TO.P,C11,2*%
%TO.N,GND*%
X80920000Y-89600000D03*
%TD*%
%TO.P,C8,1*%
%TO.N,+3.3VA*%
X81880000Y-91789300D03*
%TO.P,C8,2*%
%TO.N,GND*%
X80920000Y-91789300D03*
%TD*%
D30*
%TO.P,J4,1,Pin_1*%
%TO.N,+3.3V*%
X111252000Y-74168000D03*
D31*
%TO.P,J4,2,Pin_2*%
X108712000Y-74168000D03*
%TO.P,J4,3,Pin_3*%
%TO.N,PB14*%
X106172000Y-74168000D03*
%TO.P,J4,4,Pin_4*%
%TO.N,PB15*%
X103632000Y-74168000D03*
%TO.P,J4,5,Pin_5*%
%TO.N,PA8*%
X101092000Y-74168000D03*
%TO.P,J4,6,Pin_6*%
%TO.N,PA9*%
X98552000Y-74168000D03*
%TO.P,J4,7,Pin_7*%
%TO.N,PA10*%
X96012000Y-74168000D03*
%TO.P,J4,8,Pin_8*%
%TO.N,PA15*%
X93472000Y-74168000D03*
%TO.P,J4,9,Pin_9*%
%TO.N,PB3*%
X90932000Y-74168000D03*
%TO.P,J4,10,Pin_10*%
%TO.N,PB4*%
X88392000Y-74168000D03*
%TO.P,J4,11,Pin_11*%
%TO.N,PB5*%
X85852000Y-74168000D03*
%TO.P,J4,12,Pin_12*%
%TO.N,USART1_TX*%
X83312000Y-74168000D03*
%TO.P,J4,13,Pin_13*%
%TO.N,USART1_RX*%
X80772000Y-74168000D03*
%TO.P,J4,14,Pin_14*%
%TO.N,PB8*%
X78232000Y-74168000D03*
%TO.P,J4,15,Pin_15*%
%TO.N,PB9*%
X75692000Y-74168000D03*
%TO.P,J4,16,Pin_16*%
%TO.N,PC13*%
X73152000Y-74168000D03*
%TO.P,J4,17,Pin_17*%
%TO.N,PC14*%
X70612000Y-74168000D03*
%TO.P,J4,18,Pin_18*%
%TO.N,PC15*%
X68072000Y-74168000D03*
%TO.P,J4,19,Pin_19*%
%TO.N,GND*%
X65532000Y-74168000D03*
%TO.P,J4,20,Pin_20*%
X62992000Y-74168000D03*
%TD*%
D29*
%TO.P,C13,2*%
%TO.N,GND*%
X80920000Y-87400000D03*
%TO.P,C13,1*%
%TO.N,/HSE_OUT*%
X81880000Y-87400000D03*
%TD*%
D24*
%TO.P,R1,1*%
%TO.N,/PWR_LED_K*%
X78242000Y-98834000D03*
%TO.P,R1,2*%
%TO.N,GND*%
X77222000Y-98834000D03*
%TD*%
D29*
%TO.P,C9,1*%
%TO.N,+3.3VA*%
X78212000Y-94323300D03*
%TO.P,C9,2*%
%TO.N,GND*%
X77252000Y-94323300D03*
%TD*%
D32*
%TO.P,C2,1*%
%TO.N,+3.3V*%
X75580000Y-103800000D03*
%TO.P,C2,2*%
%TO.N,GND*%
X75580000Y-101900000D03*
%TD*%
D30*
%TO.P,J3,1,Pin_1*%
%TO.N,+3.3V*%
X111252000Y-110236000D03*
D31*
%TO.P,J3,2,Pin_2*%
X108712000Y-110236000D03*
%TO.P,J3,3,Pin_3*%
%TO.N,PB13*%
X106172000Y-110236000D03*
%TO.P,J3,4,Pin_4*%
%TO.N,PB12*%
X103632000Y-110236000D03*
%TO.P,J3,5,Pin_5*%
%TO.N,I2C2_SDA*%
X101092000Y-110236000D03*
%TO.P,J3,6,Pin_6*%
%TO.N,I2C2_SCL*%
X98552000Y-110236000D03*
%TO.P,J3,7,Pin_7*%
%TO.N,PB2*%
X96012000Y-110236000D03*
%TO.P,J3,8,Pin_8*%
%TO.N,PB1*%
X93472000Y-110236000D03*
%TO.P,J3,9,Pin_9*%
%TO.N,PB0*%
X90932000Y-110236000D03*
%TO.P,J3,10,Pin_10*%
%TO.N,PA7*%
X88392000Y-110236000D03*
%TO.P,J3,11,Pin_11*%
%TO.N,PA6*%
X85852000Y-110236000D03*
%TO.P,J3,12,Pin_12*%
%TO.N,PA5*%
X83312000Y-110236000D03*
%TO.P,J3,13,Pin_13*%
%TO.N,PA4*%
X80772000Y-110236000D03*
%TO.P,J3,14,Pin_14*%
%TO.N,PA3*%
X78232000Y-110236000D03*
%TO.P,J3,15,Pin_15*%
%TO.N,PA2*%
X75692000Y-110236000D03*
%TO.P,J3,16,Pin_16*%
%TO.N,PA1*%
X73152000Y-110236000D03*
%TO.P,J3,17,Pin_17*%
%TO.N,PA0*%
X70612000Y-110236000D03*
%TO.P,J3,18,Pin_18*%
%TO.N,GND*%
X68072000Y-110236000D03*
%TO.P,J3,19,Pin_19*%
X65532000Y-110236000D03*
%TO.P,J3,20,Pin_20*%
X62992000Y-110236000D03*
%TD*%
D29*
%TO.P,C12,1*%
%TO.N,/HSE_IN*%
X81880000Y-85100000D03*
%TO.P,C12,2*%
%TO.N,GND*%
X80920000Y-85100000D03*
%TD*%
D26*
%TO.P,FB1,1*%
%TO.N,+3.3VA*%
X80632000Y-95046500D03*
%TO.P,FB1,2*%
%TO.N,+3.3V*%
X80632000Y-96621500D03*
%TD*%
D30*
%TO.P,J2,1,Pin_1*%
%TO.N,GND*%
X116586000Y-86360000D03*
D31*
%TO.P,J2,2,Pin_2*%
%TO.N,SWCLK*%
X116586000Y-88900000D03*
%TO.P,J2,3,Pin_3*%
%TO.N,SWDIO*%
X116586000Y-91440000D03*
%TO.P,J2,4,Pin_4*%
%TO.N,+3.3V*%
X116586000Y-93980000D03*
%TD*%
D29*
%TO.P,C5,1*%
%TO.N,+3.3V*%
X93698000Y-95879300D03*
%TO.P,C5,2*%
%TO.N,GND*%
X92738000Y-95879300D03*
%TD*%
D33*
%TO.N,GND*%
X73700000Y-100100000D03*
X74500000Y-96900000D03*
X72700000Y-98300000D03*
X91600000Y-88900000D03*
X71900000Y-85300000D03*
X71900000Y-89200000D03*
%TO.N,+5V*%
X70700000Y-92400000D03*
X69100000Y-93700000D03*
%TO.N,GND*%
X67200000Y-95000000D03*
X63600000Y-95500000D03*
X75500000Y-99600000D03*
X75800000Y-95500000D03*
X73900000Y-90400000D03*
X80200000Y-89800000D03*
X87100000Y-88700000D03*
X92700000Y-96900000D03*
X97900000Y-84300000D03*
X92700000Y-85600000D03*
X85900000Y-82700000D03*
X78600000Y-85600000D03*
%TO.N,+3.3V*%
X108800000Y-77300000D03*
X96900000Y-77200000D03*
X80700000Y-98000000D03*
X111300000Y-99300000D03*
X93700000Y-98000000D03*
X92400000Y-99400000D03*
%TO.N,Net-(U2-BOOT0)*%
X89066000Y-81400000D03*
X78122000Y-81426700D03*
%TO.N,SWCLK*%
X93400000Y-83800000D03*
%TO.N,SWDIO*%
X95500000Y-86200000D03*
%TO.N,USB_D+*%
X64200000Y-90500000D03*
X92600000Y-86700000D03*
%TO.N,USB_D-*%
X63300000Y-91500000D03*
X95900000Y-86984000D03*
%TD*%
D34*
%TO.N,Net-(J1-CC1)*%
X63025000Y-90705120D02*
X62778120Y-90952000D01*
X63700000Y-89700000D02*
X63025000Y-90375000D01*
X62778120Y-90952000D02*
X62100000Y-90952000D01*
X64690000Y-89700000D02*
X63700000Y-89700000D01*
X63025000Y-90375000D02*
X63025000Y-90705120D01*
X66090000Y-91100000D02*
X64690000Y-89700000D01*
%TO.N,GND*%
X72700000Y-96350000D02*
X72700000Y-94700000D01*
X72700000Y-94700000D02*
X73800000Y-93600000D01*
D35*
%TO.N,+3.3V*%
X80700000Y-100778000D02*
X80700000Y-98000000D01*
X77612000Y-103866000D02*
X80700000Y-100778000D01*
%TO.N,+5V*%
X65850000Y-96350000D02*
X68100000Y-96350000D01*
X64102000Y-94602000D02*
X65850000Y-96350000D01*
D34*
%TO.N,GND*%
X92700000Y-85680761D02*
X92700000Y-85600000D01*
X91600000Y-88900000D02*
X91600000Y-86780761D01*
X91600000Y-86780761D02*
X92700000Y-85680761D01*
X71900000Y-85300000D02*
X71900000Y-89200000D01*
%TO.N,+5V*%
X70700000Y-92400000D02*
X70800000Y-92400000D01*
X70800000Y-92500000D02*
X70700000Y-92400000D01*
X71900000Y-93600000D02*
X70800000Y-92500000D01*
X69100000Y-93600000D02*
X69000000Y-93700000D01*
X69100000Y-93700000D02*
X69100000Y-93600000D01*
X69000000Y-93700000D02*
X69100000Y-93700000D01*
X68100000Y-94600000D02*
X69000000Y-93700000D01*
X68100000Y-96350000D02*
X68100000Y-94600000D01*
%TO.N,GND*%
X73900000Y-93600000D02*
X75800000Y-95500000D01*
X73800000Y-93600000D02*
X73900000Y-93600000D01*
%TO.N,+3.3V*%
X61169634Y-84150000D02*
X58630000Y-84150000D01*
X70400000Y-93380366D02*
X61169634Y-84150000D01*
X70400000Y-96350000D02*
X70400000Y-93380366D01*
X70400000Y-102650000D02*
X70400000Y-96350000D01*
X74430000Y-102650000D02*
X75580000Y-103800000D01*
X70400000Y-102650000D02*
X74430000Y-102650000D01*
%TO.N,GND*%
X80920000Y-87400000D02*
X78200000Y-87400000D01*
%TO.N,Net-(J1-CC2)*%
X66042000Y-93952000D02*
X62100000Y-93952000D01*
X66090000Y-94000000D02*
X66042000Y-93952000D01*
%TO.N,GND*%
X62992000Y-75138000D02*
X58326000Y-79804000D01*
X62992000Y-74168000D02*
X62992000Y-75138000D01*
D35*
%TO.N,PC13*%
X73517590Y-74168000D02*
X73152000Y-74168000D01*
X84983590Y-85634000D02*
X73517590Y-74168000D01*
X85753500Y-85634000D02*
X84983590Y-85634000D01*
D34*
%TO.N,GND*%
X62100000Y-89002000D02*
X62100000Y-88457000D01*
X62100000Y-88457000D02*
X61525000Y-87882000D01*
%TO.N,+5V*%
X61571880Y-94602000D02*
X62100000Y-94602000D01*
X60775000Y-90598880D02*
X60775000Y-93805120D01*
X61571880Y-89802000D02*
X60775000Y-90598880D01*
X62100000Y-89802000D02*
X61571880Y-89802000D01*
X60775000Y-93805120D02*
X61571880Y-94602000D01*
%TO.N,GND*%
X67110000Y-94000000D02*
X67110000Y-94910000D01*
X67110000Y-94910000D02*
X67200000Y-95000000D01*
X63502000Y-95402000D02*
X63600000Y-95500000D01*
X62100000Y-95402000D02*
X63502000Y-95402000D01*
X67110000Y-94000000D02*
X67110000Y-91100000D01*
X87666000Y-82880880D02*
X87666000Y-83721500D01*
X87419120Y-82634000D02*
X87666000Y-82880880D01*
X85966000Y-82634000D02*
X87419120Y-82634000D01*
X85900000Y-82700000D02*
X85966000Y-82634000D01*
X80920000Y-90520000D02*
X80200000Y-89800000D01*
X80920000Y-91789300D02*
X80920000Y-90520000D01*
X77252000Y-96634000D02*
X76934000Y-96634000D01*
X76934000Y-96634000D02*
X75800000Y-95500000D01*
X76976700Y-94323300D02*
X75800000Y-95500000D01*
X77252000Y-94323300D02*
X76976700Y-94323300D01*
X75580000Y-99680000D02*
X75500000Y-99600000D01*
X75580000Y-101900000D02*
X75580000Y-99680000D01*
X76266000Y-98834000D02*
X75500000Y-99600000D01*
X77222000Y-98834000D02*
X76266000Y-98834000D01*
X75900000Y-90300000D02*
X73900000Y-90400000D01*
X80400000Y-89600000D02*
X80200000Y-89800000D01*
X80920000Y-89600000D02*
X80400000Y-89600000D01*
X87034000Y-88634000D02*
X87100000Y-88700000D01*
X85753500Y-88634000D02*
X87034000Y-88634000D01*
X92738000Y-96862000D02*
X92700000Y-96900000D01*
X92738000Y-95879300D02*
X92738000Y-96862000D01*
%TO.N,+3.3V*%
X92666000Y-91205880D02*
X86594120Y-85134000D01*
X92666000Y-92046500D02*
X92666000Y-91205880D01*
X86594120Y-85134000D02*
X85753500Y-85134000D01*
D35*
X87166000Y-84491410D02*
X87166000Y-83721500D01*
X87658591Y-84984001D02*
X87166000Y-84491410D01*
X93928501Y-84984001D02*
X87658591Y-84984001D01*
X94078500Y-85134000D02*
X93928501Y-84984001D01*
D34*
%TO.N,GND*%
X97900000Y-84500000D02*
X97800000Y-84400000D01*
X97900000Y-84300000D02*
X97900000Y-84500000D01*
X97700000Y-84300000D02*
X97900000Y-84300000D01*
X97780000Y-84380000D02*
X97700000Y-84300000D01*
X96900000Y-84380000D02*
X97780000Y-84380000D01*
%TO.N,PA10*%
X98900000Y-77056000D02*
X96012000Y-74168000D01*
X98900000Y-85719634D02*
X98900000Y-77056000D01*
X96985634Y-87634000D02*
X98900000Y-85719634D01*
X94078500Y-87634000D02*
X96985634Y-87634000D01*
%TO.N,PA9*%
X99700000Y-86352000D02*
X97918000Y-88134000D01*
X99700000Y-75316000D02*
X99700000Y-86352000D01*
X97918000Y-88134000D02*
X94078500Y-88134000D01*
X98552000Y-74168000D02*
X99700000Y-75316000D01*
%TO.N,GND*%
X94078500Y-85634000D02*
X92734000Y-85634000D01*
X92734000Y-85634000D02*
X92700000Y-85600000D01*
X85524000Y-82324000D02*
X85900000Y-82700000D01*
X84739000Y-82324000D02*
X85524000Y-82324000D01*
X84739000Y-81136000D02*
X85075000Y-80800000D01*
X84739000Y-82324000D02*
X84739000Y-81136000D01*
X79100000Y-85100000D02*
X78600000Y-85600000D01*
X80920000Y-85100000D02*
X79100000Y-85100000D01*
X78700000Y-85600000D02*
X78600000Y-85700000D01*
X78600000Y-85600000D02*
X78700000Y-85600000D01*
X78600000Y-85700000D02*
X78600000Y-85600000D01*
X78200000Y-86100000D02*
X78600000Y-85700000D01*
X78200000Y-87400000D02*
X78200000Y-86100000D01*
X65532000Y-74168000D02*
X62992000Y-74168000D01*
%TO.N,+3.3V*%
X108900000Y-77300000D02*
X108800000Y-77200000D01*
X108800000Y-77300000D02*
X108900000Y-77300000D01*
X108800000Y-77200000D02*
X108800000Y-77300000D01*
X108712000Y-77112000D02*
X108800000Y-77200000D01*
X108712000Y-74168000D02*
X108712000Y-77112000D01*
D35*
X96900000Y-83420000D02*
X96900000Y-77200000D01*
D34*
X108712000Y-74168000D02*
X111252000Y-74168000D01*
X80700000Y-96689500D02*
X80632000Y-96621500D01*
X80700000Y-98000000D02*
X80700000Y-96689500D01*
X111300000Y-99266000D02*
X116586000Y-93980000D01*
X111300000Y-99300000D02*
X111300000Y-99266000D01*
X111266000Y-99300000D02*
X111300000Y-99300000D01*
X92500000Y-100200000D02*
X93500000Y-100200000D01*
X92400000Y-99400000D02*
X92400000Y-100100000D01*
X92400000Y-100100000D02*
X92500000Y-100200000D01*
X93698000Y-95879300D02*
X93700000Y-98000000D01*
D35*
%TO.N,+3.3VA*%
X81880000Y-93798500D02*
X80632000Y-95046500D01*
X81880000Y-91789300D02*
X81880000Y-93798500D01*
%TO.N,/PWR_LED_K*%
X78242000Y-101661000D02*
X77612000Y-102291000D01*
X78242000Y-98834000D02*
X78242000Y-101661000D01*
%TO.N,+5V*%
X64102000Y-94602000D02*
X62100000Y-94602000D01*
%TO.N,+3.3V*%
X77546000Y-103800000D02*
X77612000Y-103866000D01*
X75580000Y-103800000D02*
X77546000Y-103800000D01*
%TO.N,/SW_BOOT0*%
X59730000Y-81400000D02*
X58326000Y-82804000D01*
X75980000Y-81400000D02*
X59730000Y-81400000D01*
%TO.N,PC15*%
X78116134Y-80400000D02*
X74304000Y-80400000D01*
X74304000Y-80400000D02*
X68072000Y-74168000D01*
X84316134Y-86600000D02*
X78116134Y-80400000D01*
X85719500Y-86600000D02*
X84316134Y-86600000D01*
X85753500Y-86634000D02*
X85719500Y-86600000D01*
%TO.N,/HSE_IN*%
X84717685Y-87000000D02*
X84851685Y-87134000D01*
X84851685Y-87134000D02*
X85753500Y-87134000D01*
X83780000Y-87000000D02*
X84717685Y-87000000D01*
X81880000Y-85100000D02*
X83780000Y-87000000D01*
%TO.N,PC14*%
X76344000Y-79900000D02*
X70612000Y-74168000D01*
X78683905Y-79900000D02*
X76344000Y-79900000D01*
X85753500Y-86134000D02*
X84917905Y-86134000D01*
X84917905Y-86134000D02*
X78683905Y-79900000D01*
%TO.N,+3.3V*%
X85753500Y-85134000D02*
X87166000Y-83721500D01*
X83779000Y-81054000D02*
X83525000Y-80800000D01*
X83779000Y-82324000D02*
X83779000Y-81054000D01*
X85176500Y-83721500D02*
X83779000Y-82324000D01*
X87166000Y-83721500D02*
X85176500Y-83721500D01*
%TO.N,PB9*%
X80124000Y-78600000D02*
X75692000Y-74168000D01*
X88166000Y-82667304D02*
X84098696Y-78600000D01*
X88166000Y-83721500D02*
X88166000Y-82667304D01*
X84098696Y-78600000D02*
X80124000Y-78600000D01*
%TO.N,PB8*%
X85200000Y-78200000D02*
X82264000Y-78200000D01*
X86525000Y-79707529D02*
X86525000Y-79525000D01*
X82264000Y-78200000D02*
X78232000Y-74168000D01*
X88666000Y-81848529D02*
X86525000Y-79707529D01*
X86525000Y-79525000D02*
X85200000Y-78200000D01*
X88666000Y-83721500D02*
X88666000Y-81848529D01*
%TO.N,Net-(U2-BOOT0)*%
X89166000Y-81500000D02*
X89166000Y-83721500D01*
X89066000Y-81400000D02*
X89166000Y-81500000D01*
X78122000Y-81426700D02*
X77000000Y-81400000D01*
%TO.N,USART1_RX*%
X84404000Y-77800000D02*
X80772000Y-74168000D01*
X87000000Y-77800000D02*
X84404000Y-77800000D01*
X89666000Y-80466000D02*
X87000000Y-77800000D01*
X89666000Y-83721500D02*
X89666000Y-80466000D01*
%TO.N,USART1_TX*%
X90166000Y-79266000D02*
X90166000Y-83721500D01*
X84100000Y-75800000D02*
X86700000Y-75800000D01*
X86700000Y-75800000D02*
X90166000Y-79266000D01*
X83312000Y-75012000D02*
X84100000Y-75800000D01*
X83312000Y-74168000D02*
X83312000Y-75012000D01*
%TO.N,PB5*%
X85852000Y-74168000D02*
X90666000Y-78982000D01*
X90666000Y-78982000D02*
X90666000Y-83721500D01*
%TO.N,PB4*%
X91166000Y-76942000D02*
X91166000Y-83721500D01*
X88392000Y-74168000D02*
X91166000Y-76942000D01*
%TO.N,PB3*%
X91666000Y-74902000D02*
X90932000Y-74168000D01*
X91666000Y-83721500D02*
X91666000Y-74902000D01*
%TO.N,PA15*%
X92166000Y-75474000D02*
X92166000Y-83721500D01*
X93472000Y-74168000D02*
X92166000Y-75474000D01*
%TO.N,SWCLK*%
X93321500Y-83721500D02*
X93400000Y-83800000D01*
X92666000Y-83721500D02*
X93321500Y-83721500D01*
%TO.N,+3.3V*%
X95186000Y-85134000D02*
X94078500Y-85134000D01*
X96900000Y-83420000D02*
X95186000Y-85134000D01*
X96344000Y-85134000D02*
X96900000Y-85690000D01*
X94078500Y-85134000D02*
X96344000Y-85134000D01*
%TO.N,SWDIO*%
X95434000Y-86134000D02*
X95500000Y-86200000D01*
X94078500Y-86134000D02*
X95434000Y-86134000D01*
%TO.N,USB_D-*%
X94848410Y-87134000D02*
X94078500Y-87134000D01*
X95900000Y-86984000D02*
X94998410Y-86984000D01*
X94998410Y-86984000D02*
X94848410Y-87134000D01*
X96174000Y-86710000D02*
X96900000Y-86710000D01*
X95900000Y-86984000D02*
X96174000Y-86710000D01*
D34*
%TO.N,PA8*%
X101092000Y-88408000D02*
X101092000Y-74168000D01*
X100950000Y-88550000D02*
X101092000Y-88408000D01*
D35*
X100866000Y-88634000D02*
X94078500Y-88634000D01*
X100950000Y-88550000D02*
X100866000Y-88634000D01*
D34*
%TO.N,PB14*%
X106172000Y-74168000D02*
X106172000Y-88800000D01*
X106172000Y-88800000D02*
X105338000Y-89634000D01*
X105338000Y-89634000D02*
X94078500Y-89634000D01*
%TO.N,PB15*%
X103066000Y-89134000D02*
X94078500Y-89134000D01*
X103632000Y-88568000D02*
X103066000Y-89134000D01*
X103632000Y-74168000D02*
X103632000Y-88568000D01*
%TO.N,+3.3V*%
X108712000Y-110236000D02*
X111252000Y-110236000D01*
X111252000Y-110236000D02*
X111252000Y-99314000D01*
X111252000Y-99314000D02*
X111266000Y-99300000D01*
%TO.N,PB13*%
X94919120Y-90134000D02*
X94078500Y-90134000D01*
X106172000Y-110236000D02*
X106172000Y-101386880D01*
X106172000Y-101386880D02*
X94919120Y-90134000D01*
%TO.N,PB12*%
X103632000Y-100187500D02*
X94078500Y-90634000D01*
X103632000Y-110236000D02*
X103632000Y-100187500D01*
%TO.N,I2C2_SCL*%
X91480000Y-101380000D02*
X91480000Y-100200000D01*
X98552000Y-110236000D02*
X98552000Y-108452000D01*
X98552000Y-108452000D02*
X91480000Y-101380000D01*
X91166000Y-99766000D02*
X91166000Y-92046500D01*
X91480000Y-100200000D02*
X91480000Y-100080000D01*
X91480000Y-100080000D02*
X91166000Y-99766000D01*
%TO.N,GND*%
X92710000Y-95851300D02*
X92738000Y-95879300D01*
X92710000Y-94327300D02*
X92710000Y-95851300D01*
X92166000Y-93783300D02*
X92166000Y-92046500D01*
X92710000Y-94327300D02*
X92166000Y-93783300D01*
%TO.N,+3.3V*%
X93698000Y-94355300D02*
X93670000Y-94327300D01*
X93698000Y-95879300D02*
X93698000Y-94355300D01*
X93670000Y-93050500D02*
X92666000Y-92046500D01*
X93670000Y-94327300D02*
X93670000Y-93050500D01*
%TO.N,I2C2_SDA*%
X101092000Y-106782000D02*
X101092000Y-110236000D01*
X94400000Y-100090000D02*
X101092000Y-106782000D01*
%TO.N,PB2*%
X96012000Y-107112000D02*
X90666000Y-101766000D01*
X96012000Y-110236000D02*
X96012000Y-107112000D01*
X90666000Y-101766000D02*
X90666000Y-92046500D01*
%TO.N,PB1*%
X93472000Y-106772000D02*
X93472000Y-110236000D01*
X90166000Y-103466000D02*
X93472000Y-106772000D01*
X90166000Y-92046500D02*
X90166000Y-103466000D01*
%TO.N,I2C2_SDA*%
X91666000Y-97356000D02*
X91666000Y-92046500D01*
X94400000Y-100090000D02*
X91666000Y-97356000D01*
%TO.N,PB0*%
X89666000Y-108970000D02*
X89666000Y-92046500D01*
X90932000Y-110236000D02*
X89666000Y-108970000D01*
%TO.N,PA7*%
X89166000Y-105934000D02*
X89166000Y-92046500D01*
X88392000Y-106708000D02*
X89166000Y-105934000D01*
X88392000Y-110236000D02*
X88392000Y-106708000D01*
%TO.N,PA6*%
X85852000Y-107952000D02*
X85852000Y-110236000D01*
X85800000Y-107900000D02*
X85852000Y-107952000D01*
X88666000Y-104734000D02*
X85800000Y-107600000D01*
X88666000Y-92046500D02*
X88666000Y-104734000D01*
X85800000Y-107600000D02*
X85800000Y-107900000D01*
%TO.N,PA5*%
X88166000Y-103434000D02*
X88166000Y-92046500D01*
X83312000Y-108288000D02*
X88166000Y-103434000D01*
X83312000Y-110236000D02*
X83312000Y-108288000D01*
%TO.N,PA4*%
X80700000Y-108600000D02*
X80700000Y-108900000D01*
X80700000Y-108900000D02*
X80772000Y-108972000D01*
X87666000Y-101634000D02*
X80700000Y-108600000D01*
X80772000Y-108972000D02*
X80772000Y-110236000D01*
X87666000Y-92046500D02*
X87666000Y-101634000D01*
%TO.N,PA2*%
X85753500Y-100174500D02*
X75692000Y-110236000D01*
X85753500Y-90634000D02*
X85753500Y-100174500D01*
%TO.N,PA1*%
X84912880Y-90134000D02*
X85753500Y-90134000D01*
X83400000Y-91646880D02*
X84912880Y-90134000D01*
X83400000Y-101300000D02*
X83400000Y-91646880D01*
X76500000Y-108200000D02*
X83400000Y-101300000D01*
X75188000Y-108200000D02*
X76500000Y-108200000D01*
X73152000Y-110236000D02*
X75188000Y-108200000D01*
%TO.N,PA0*%
X82510000Y-90990000D02*
X83866000Y-89634000D01*
X76550000Y-107350000D02*
X82510000Y-101390000D01*
X73498000Y-107350000D02*
X76550000Y-107350000D01*
X70612000Y-110236000D02*
X73498000Y-107350000D01*
X82510000Y-101390000D02*
X82510000Y-90990000D01*
X83866000Y-89634000D02*
X85753500Y-89634000D01*
D35*
%TO.N,USB_D+*%
X63700000Y-92500000D02*
X64200000Y-92000000D01*
X63000000Y-92500000D02*
X63700000Y-92500000D01*
X64200000Y-92000000D02*
X64200000Y-90500000D01*
X63000000Y-92500000D02*
X63000000Y-92952000D01*
X63000000Y-92048529D02*
X63000000Y-92500000D01*
D34*
X92666000Y-86634000D02*
X92600000Y-86700000D01*
X94078500Y-86634000D02*
X92666000Y-86634000D01*
D35*
%TO.N,PA3*%
X87166000Y-101302000D02*
X78232000Y-110236000D01*
X87166000Y-92046500D02*
X87166000Y-101302000D01*
%TO.N,USB_D+*%
X62100000Y-91952000D02*
X62903471Y-91952000D01*
X62903471Y-91952000D02*
X63000000Y-92048529D01*
X63000000Y-92952000D02*
X62100000Y-92952000D01*
%TO.N,USB_D-*%
X61352000Y-92452000D02*
X62100000Y-92452000D01*
X61225000Y-91719590D02*
X61225000Y-92325000D01*
X61492590Y-91452000D02*
X61225000Y-91719590D01*
X62100000Y-91452000D02*
X61492590Y-91452000D01*
X61225000Y-92325000D02*
X61352000Y-92452000D01*
X63252000Y-91452000D02*
X63300000Y-91500000D01*
X62100000Y-91452000D02*
X63252000Y-91452000D01*
%TO.N,+3.3V*%
X80619500Y-96634000D02*
X80632000Y-96621500D01*
X78212000Y-96634000D02*
X80619500Y-96634000D01*
%TO.N,+3.3VA*%
X79908800Y-94323300D02*
X80632000Y-95046500D01*
X78212000Y-94323300D02*
X79908800Y-94323300D01*
X83800000Y-89000000D02*
X81880000Y-90920000D01*
X84983590Y-89134000D02*
X84849590Y-89000000D01*
X84849590Y-89000000D02*
X83800000Y-89000000D01*
X85753500Y-89134000D02*
X84983590Y-89134000D01*
X81880000Y-90920000D02*
X81880000Y-91789300D01*
%TO.N,/NRST*%
X82800000Y-88200000D02*
X81880000Y-89120000D01*
X84917590Y-88200000D02*
X82800000Y-88200000D01*
X84983590Y-88134000D02*
X84917590Y-88200000D01*
X85753500Y-88134000D02*
X84983590Y-88134000D01*
X81880000Y-89120000D02*
X81880000Y-89600000D01*
%TO.N,/HSE_OUT*%
X84552000Y-87400000D02*
X84786000Y-87634000D01*
X81880000Y-87400000D02*
X84552000Y-87400000D01*
X80780000Y-88500000D02*
X81880000Y-87400000D01*
X80300000Y-88500000D02*
X80780000Y-88500000D01*
X78500000Y-90300000D02*
X80300000Y-88500000D01*
X78200000Y-90300000D02*
X78500000Y-90300000D01*
%TO.N,/HSE_IN*%
X80880000Y-84100000D02*
X81880000Y-85100000D01*
X79050000Y-84100000D02*
X80880000Y-84100000D01*
X75900000Y-87250000D02*
X79050000Y-84100000D01*
X75900000Y-87400000D02*
X75900000Y-87250000D01*
%TO.N,/HSE_OUT*%
X84786000Y-87634000D02*
X85753500Y-87634000D01*
%TD*%
%TA.AperFunction,Conductor*%
%TO.N,+3.3V*%
G36*
X71040382Y-94919685D02*
G01*
X71086137Y-94972489D01*
X71095087Y-95030910D01*
X71097115Y-95031018D01*
X71096879Y-95035440D01*
X71104425Y-95450480D01*
X71108672Y-95507311D01*
X71112316Y-95534962D01*
X71112318Y-95534974D01*
X71116100Y-95554920D01*
X71122931Y-95590950D01*
X71139855Y-95659000D01*
X71141332Y-95664938D01*
X71141333Y-95664940D01*
X71144999Y-95694867D01*
X71144999Y-97022677D01*
X71143035Y-97044657D01*
X71142070Y-97050013D01*
X71142069Y-97050018D01*
X71138425Y-97082179D01*
X71135294Y-97148276D01*
X71135294Y-97148286D01*
X71135294Y-97148290D01*
X71173601Y-99255128D01*
X71193433Y-100345909D01*
X71203886Y-100439394D01*
X71213221Y-100484389D01*
X71213222Y-100484395D01*
X71232308Y-100546591D01*
X71240819Y-100574326D01*
X71314016Y-100698195D01*
X71357760Y-100752676D01*
X71462882Y-100850899D01*
X71462886Y-100850902D01*
X73673873Y-102391894D01*
X73681817Y-102397321D01*
X73685636Y-102399877D01*
X73685641Y-102399880D01*
X73693547Y-102405067D01*
X73824424Y-102464838D01*
X73891463Y-102484523D01*
X73891467Y-102484524D01*
X74033883Y-102505000D01*
X74372978Y-102505000D01*
X74440017Y-102524685D01*
X74478516Y-102563903D01*
X74512288Y-102618656D01*
X74636344Y-102742712D01*
X74785666Y-102834814D01*
X74808931Y-102842523D01*
X74857610Y-102872548D01*
X75006185Y-103021123D01*
X75006201Y-103021137D01*
X75006208Y-103021144D01*
X75046426Y-103057271D01*
X75046438Y-103057281D01*
X75046446Y-103057288D01*
X75060245Y-103068408D01*
X75067089Y-103073923D01*
X75089030Y-103089744D01*
X75110972Y-103105567D01*
X75241849Y-103165338D01*
X75308888Y-103185023D01*
X75308892Y-103185024D01*
X75451308Y-103205500D01*
X75451311Y-103205500D01*
X76508832Y-103205500D01*
X76508836Y-103205500D01*
X76540564Y-103204503D01*
X76556099Y-103203526D01*
X76587699Y-103200540D01*
X76726428Y-103162384D01*
X76790473Y-103134456D01*
X76790474Y-103134455D01*
X76790476Y-103134453D01*
X76790810Y-103134308D01*
X76792782Y-103133027D01*
X76804129Y-103126007D01*
X76871495Y-103107479D01*
X76876832Y-103107686D01*
X76932536Y-103111062D01*
X76990127Y-103129296D01*
X77013441Y-103143676D01*
X77049705Y-103166045D01*
X77049710Y-103166047D01*
X77049713Y-103166049D01*
X77209315Y-103218936D01*
X77307826Y-103229000D01*
X77307831Y-103229000D01*
X77916169Y-103229000D01*
X77916174Y-103229000D01*
X78014685Y-103218936D01*
X78099907Y-103190696D01*
X78146403Y-103184630D01*
X78283503Y-103192939D01*
X78349227Y-103216643D01*
X78391704Y-103272119D01*
X78400000Y-103316712D01*
X78400000Y-104528690D01*
X78380315Y-104595729D01*
X78363681Y-104616371D01*
X78314745Y-104665307D01*
X78253422Y-104698792D01*
X78228234Y-104701620D01*
X67925170Y-104798819D01*
X67857948Y-104779768D01*
X67811697Y-104727398D01*
X67800000Y-104674825D01*
X67800000Y-100546591D01*
X67819685Y-100479552D01*
X67830681Y-100464936D01*
X68808136Y-99347845D01*
X68867095Y-99310355D01*
X68901455Y-99305500D01*
X68979140Y-99305500D01*
X68989355Y-99304467D01*
X69080248Y-99295285D01*
X69094392Y-99292397D01*
X69128838Y-99285366D01*
X69128841Y-99285364D01*
X69128851Y-99285363D01*
X69225880Y-99255128D01*
X69348874Y-99180468D01*
X69400901Y-99137670D01*
X69402623Y-99136312D01*
X69402834Y-99136081D01*
X69402836Y-99136080D01*
X69499813Y-99029792D01*
X69562917Y-98900489D01*
X69584313Y-98833976D01*
X69608432Y-98692135D01*
X69654793Y-96884022D01*
X69654917Y-96877586D01*
X69654958Y-96874408D01*
X69655000Y-96867887D01*
X69655000Y-95694867D01*
X69658666Y-95664940D01*
X69672566Y-95609049D01*
X69682932Y-95554920D01*
X69686556Y-95528173D01*
X69690967Y-95473260D01*
X69702073Y-95040137D01*
X69701610Y-95034883D01*
X69715334Y-94966376D01*
X69763918Y-94916163D01*
X69825131Y-94900000D01*
X70973343Y-94900000D01*
X71040382Y-94919685D01*
G37*
%TD.AperFunction*%
%TD*%
%TA.AperFunction,Conductor*%
%TO.N,+5V*%
G36*
X69139819Y-94919685D02*
G01*
X69185574Y-94972489D01*
X69196739Y-95027179D01*
X69185633Y-95460302D01*
X69182009Y-95487049D01*
X69152400Y-95606106D01*
X69149500Y-95648879D01*
X69149500Y-96867887D01*
X69149459Y-96871065D01*
X69103098Y-98679178D01*
X69081702Y-98745691D01*
X69027742Y-98790078D01*
X68979139Y-98800000D01*
X64924000Y-98800000D01*
X64856961Y-98780315D01*
X64811206Y-98727511D01*
X64800000Y-98676000D01*
X64800000Y-95428860D01*
X64819685Y-95361821D01*
X64872489Y-95316066D01*
X64928763Y-95304952D01*
X66418382Y-95362245D01*
X66484614Y-95384491D01*
X66518609Y-95420181D01*
X66570184Y-95502262D01*
X66697738Y-95629816D01*
X66850478Y-95725789D01*
X67020745Y-95785368D01*
X67020750Y-95785369D01*
X67199996Y-95805565D01*
X67200000Y-95805565D01*
X67200004Y-95805565D01*
X67379249Y-95785369D01*
X67379252Y-95785368D01*
X67379255Y-95785368D01*
X67549522Y-95725789D01*
X67702262Y-95629816D01*
X67829816Y-95502262D01*
X67925789Y-95349522D01*
X67985368Y-95179255D01*
X67985369Y-95179250D01*
X68004426Y-95010116D01*
X68031493Y-94945702D01*
X68089087Y-94906147D01*
X68127646Y-94900000D01*
X69072780Y-94900000D01*
X69139819Y-94919685D01*
G37*
%TD.AperFunction*%
%TD*%
%TA.AperFunction,Conductor*%
%TO.N,GND*%
G36*
X74020021Y-94919685D02*
G01*
X74035195Y-94931172D01*
X77458216Y-97962991D01*
X77495350Y-98022176D01*
X77500000Y-98055816D01*
X77500000Y-98442809D01*
X77495076Y-98477404D01*
X77474336Y-98548789D01*
X77474334Y-98548802D01*
X77471500Y-98584811D01*
X77471500Y-99083169D01*
X77471501Y-99083191D01*
X77474098Y-99116202D01*
X77474335Y-99119204D01*
X77495076Y-99190597D01*
X77500000Y-99225189D01*
X77500000Y-99286389D01*
X77497047Y-99313288D01*
X77101132Y-101094902D01*
X77098441Y-101104987D01*
X77003517Y-101408742D01*
X76964734Y-101466857D01*
X76950262Y-101477292D01*
X76906611Y-101504216D01*
X76787719Y-101623108D01*
X76787716Y-101623112D01*
X76699455Y-101766204D01*
X76699450Y-101766215D01*
X76687202Y-101803177D01*
X76646564Y-101925815D01*
X76646564Y-101925816D01*
X76646563Y-101925816D01*
X76636500Y-102024318D01*
X76636500Y-102560830D01*
X76636071Y-102560830D01*
X76631009Y-102600766D01*
X76627195Y-102612975D01*
X76588416Y-102671095D01*
X76524371Y-102699023D01*
X76508836Y-102700000D01*
X75451308Y-102700000D01*
X75384269Y-102680315D01*
X75363627Y-102663681D01*
X74844674Y-102144727D01*
X74844673Y-102144726D01*
X74844669Y-102144723D01*
X74738127Y-102073535D01*
X74619744Y-102024499D01*
X74619742Y-102024498D01*
X74618866Y-102024324D01*
X74618865Y-102024324D01*
X74494071Y-101999500D01*
X74494069Y-101999500D01*
X74033883Y-101999500D01*
X73966844Y-101979815D01*
X73962981Y-101977229D01*
X71751927Y-100436191D01*
X71708183Y-100381710D01*
X71698849Y-100336716D01*
X71640710Y-97139101D01*
X71644355Y-97106935D01*
X71647600Y-97093889D01*
X71650500Y-97051123D01*
X71650499Y-95648878D01*
X71647600Y-95606111D01*
X71647599Y-95606109D01*
X71647599Y-95606104D01*
X71613486Y-95468938D01*
X71609841Y-95441275D01*
X71602295Y-95026252D01*
X71620758Y-94958868D01*
X71672722Y-94912161D01*
X71726275Y-94900000D01*
X73952982Y-94900000D01*
X74020021Y-94919685D01*
G37*
%TD.AperFunction*%
%TD*%
M02*
