%TF.GenerationSoftware,KiCad,Pcbnew,8.0.0*%
%TF.CreationDate,2024-03-08T02:50:51-08:00*%
%TF.ProjectId,blackpill,626c6163-6b70-4696-9c6c-2e6b69636164,rev?*%
%TF.SameCoordinates,Original*%
%TF.FileFunction,Paste,Top*%
%TF.FilePolarity,Positive*%
%FSLAX46Y46*%
G04 Gerber Fmt 4.6, Leading zero omitted, Abs format (unit mm)*
G04 Created by KiCad (PCBNEW 8.0.0) date 2024-03-08 02:50:51*
%MOMM*%
%LPD*%
G01*
G04 APERTURE LIST*
G04 Aperture macros list*
%AMRoundRect*
0 Rectangle with rounded corners*
0 $1 Rounding radius*
0 $2 $3 $4 $5 $6 $7 $8 $9 X,Y pos of 4 corners*
0 Add a 4 corners polygon primitive as box body*
4,1,4,$2,$3,$4,$5,$6,$7,$8,$9,$2,$3,0*
0 Add four circle primitives for the rounded corners*
1,1,$1+$1,$2,$3*
1,1,$1+$1,$4,$5*
1,1,$1+$1,$6,$7*
1,1,$1+$1,$8,$9*
0 Add four rect primitives between the rounded corners*
20,1,$1+$1,$2,$3,$4,$5,0*
20,1,$1+$1,$4,$5,$6,$7,0*
20,1,$1+$1,$6,$7,$8,$9,0*
20,1,$1+$1,$8,$9,$2,$3,0*%
G04 Aperture macros list end*
%ADD10O,1.800000X1.000000*%
%ADD11O,2.100000X1.000000*%
%ADD12RoundRect,0.150000X-0.425000X0.150000X-0.425000X-0.150000X0.425000X-0.150000X0.425000X0.150000X0*%
%ADD13RoundRect,0.075000X-0.500000X0.075000X-0.500000X-0.075000X0.500000X-0.075000X0.500000X0.075000X0*%
%ADD14RoundRect,0.375000X-0.375000X0.625000X-0.375000X-0.625000X0.375000X-0.625000X0.375000X0.625000X0*%
%ADD15RoundRect,0.500000X-1.400000X0.500000X-1.400000X-0.500000X1.400000X-0.500000X1.400000X0.500000X0*%
%ADD16RoundRect,0.250000X-0.250000X-0.475000X0.250000X-0.475000X0.250000X0.475000X-0.250000X0.475000X0*%
%ADD17R,1.800000X2.100000*%
%ADD18RoundRect,0.140000X-0.170000X0.140000X-0.170000X-0.140000X0.170000X-0.140000X0.170000X0.140000X0*%
%ADD19RoundRect,0.225000X-0.225000X-0.250000X0.225000X-0.250000X0.225000X0.250000X-0.225000X0.250000X0*%
%ADD20RoundRect,0.135000X-0.135000X-0.185000X0.135000X-0.185000X0.135000X0.185000X-0.135000X0.185000X0*%
%ADD21RoundRect,0.075000X-0.662500X-0.075000X0.662500X-0.075000X0.662500X0.075000X-0.662500X0.075000X0*%
%ADD22RoundRect,0.075000X-0.075000X-0.662500X0.075000X-0.662500X0.075000X0.662500X-0.075000X0.662500X0*%
%ADD23RoundRect,0.140000X-0.140000X-0.170000X0.140000X-0.170000X0.140000X0.170000X-0.140000X0.170000X0*%
%ADD24RoundRect,0.135000X0.135000X0.185000X-0.135000X0.185000X-0.135000X-0.185000X0.135000X-0.185000X0*%
%ADD25RoundRect,0.135000X-0.185000X0.135000X-0.185000X-0.135000X0.185000X-0.135000X0.185000X0.135000X0*%
%ADD26RoundRect,0.218750X-0.256250X0.218750X-0.256250X-0.218750X0.256250X-0.218750X0.256250X0.218750X0*%
%ADD27R,1.500000X0.700000*%
%ADD28R,0.800000X1.000000*%
%ADD29RoundRect,0.140000X0.140000X0.170000X-0.140000X0.170000X-0.140000X-0.170000X0.140000X-0.170000X0*%
%ADD30RoundRect,0.250000X0.475000X-0.250000X0.475000X0.250000X-0.475000X0.250000X-0.475000X-0.250000X0*%
G04 APERTURE END LIST*
D10*
%TO.C,J1*%
X57345000Y-96522000D03*
D11*
X61525000Y-96522000D03*
D10*
X57345000Y-87882000D03*
D11*
X61525000Y-87882000D03*
D12*
X62100000Y-89002000D03*
X62100000Y-89802000D03*
D13*
X62100000Y-90452000D03*
X62100000Y-91452000D03*
X62100000Y-92952000D03*
X62100000Y-93952000D03*
D12*
X62100000Y-94602000D03*
X62100000Y-95402000D03*
X62100000Y-95402000D03*
X62100000Y-94602000D03*
D13*
X62100000Y-93452000D03*
X62100000Y-92452000D03*
X62100000Y-91952000D03*
X62100000Y-90952000D03*
D12*
X62100000Y-89802000D03*
X62100000Y-89002000D03*
%TD*%
D14*
%TO.C,U1*%
X68100000Y-96350000D03*
D15*
X70400000Y-102650000D03*
D14*
X70400000Y-96350000D03*
X72700000Y-96350000D03*
%TD*%
D16*
%TO.C,C1*%
X71900000Y-93600000D03*
X73800000Y-93600000D03*
%TD*%
D17*
%TO.C,Y1*%
X75900000Y-87400000D03*
X75900000Y-90300000D03*
X78200000Y-90300000D03*
X78200000Y-87400000D03*
%TD*%
D18*
%TO.C,C6*%
X96900000Y-83420000D03*
X96900000Y-84380000D03*
%TD*%
D19*
%TO.C,C3*%
X83525000Y-80800000D03*
X85075000Y-80800000D03*
%TD*%
D20*
%TO.C,R5*%
X93500000Y-100200000D03*
X94520000Y-100200000D03*
%TD*%
D21*
%TO.C,U2*%
X85753500Y-85134000D03*
X85753500Y-85634000D03*
X85753500Y-86134000D03*
X85753500Y-86634000D03*
X85753500Y-87134000D03*
X85753500Y-87634000D03*
X85753500Y-88134000D03*
X85753500Y-88634000D03*
X85753500Y-89134000D03*
X85753500Y-89634000D03*
X85753500Y-90134000D03*
X85753500Y-90634000D03*
D22*
X87166000Y-92046500D03*
X87666000Y-92046500D03*
X88166000Y-92046500D03*
X88666000Y-92046500D03*
X89166000Y-92046500D03*
X89666000Y-92046500D03*
X90166000Y-92046500D03*
X90666000Y-92046500D03*
X91166000Y-92046500D03*
X91666000Y-92046500D03*
X92166000Y-92046500D03*
X92666000Y-92046500D03*
D21*
X94078500Y-90634000D03*
X94078500Y-90134000D03*
X94078500Y-89634000D03*
X94078500Y-89134000D03*
X94078500Y-88634000D03*
X94078500Y-88134000D03*
X94078500Y-87634000D03*
X94078500Y-87134000D03*
X94078500Y-86634000D03*
X94078500Y-86134000D03*
X94078500Y-85634000D03*
X94078500Y-85134000D03*
D22*
X92666000Y-83721500D03*
X92166000Y-83721500D03*
X91666000Y-83721500D03*
X91166000Y-83721500D03*
X90666000Y-83721500D03*
X90166000Y-83721500D03*
X89666000Y-83721500D03*
X89166000Y-83721500D03*
X88666000Y-83721500D03*
X88166000Y-83721500D03*
X87666000Y-83721500D03*
X87166000Y-83721500D03*
%TD*%
D23*
%TO.C,C4*%
X83779000Y-82324000D03*
X84739000Y-82324000D03*
%TD*%
D20*
%TO.C,R2*%
X75980000Y-81400000D03*
X77000000Y-81400000D03*
%TD*%
D24*
%TO.C,R4*%
X92500000Y-100200000D03*
X91480000Y-100200000D03*
%TD*%
D25*
%TO.C,R3*%
X96900000Y-85690000D03*
X96900000Y-86710000D03*
%TD*%
D26*
%TO.C,D1*%
X77612000Y-102291000D03*
X77612000Y-103866000D03*
%TD*%
D24*
%TO.C,R7*%
X67110000Y-94000000D03*
X66090000Y-94000000D03*
%TD*%
D27*
%TO.C,SW1*%
X58630000Y-84150000D03*
X58630000Y-82650000D03*
X58630000Y-79650000D03*
D28*
X55770000Y-85550000D03*
X57980000Y-85550000D03*
X55770000Y-78250000D03*
X57980000Y-78250000D03*
%TD*%
D29*
%TO.C,C7*%
X93670000Y-94327300D03*
X92710000Y-94327300D03*
%TD*%
D24*
%TO.C,R6*%
X67110000Y-91100000D03*
X66090000Y-91100000D03*
%TD*%
D29*
%TO.C,C10*%
X78212000Y-96634000D03*
X77252000Y-96634000D03*
%TD*%
%TO.C,C11*%
X81880000Y-89600000D03*
X80920000Y-89600000D03*
%TD*%
%TO.C,C8*%
X81880000Y-91789300D03*
X80920000Y-91789300D03*
%TD*%
%TO.C,C13*%
X80920000Y-87400000D03*
X81880000Y-87400000D03*
%TD*%
D24*
%TO.C,R1*%
X78242000Y-98834000D03*
X77222000Y-98834000D03*
%TD*%
D29*
%TO.C,C9*%
X78212000Y-94323300D03*
X77252000Y-94323300D03*
%TD*%
D30*
%TO.C,C2*%
X75580000Y-103800000D03*
X75580000Y-101900000D03*
%TD*%
D29*
%TO.C,C12*%
X81880000Y-85100000D03*
X80920000Y-85100000D03*
%TD*%
D26*
%TO.C,FB1*%
X80632000Y-95046500D03*
X80632000Y-96621500D03*
%TD*%
D29*
%TO.C,C5*%
X93698000Y-95879300D03*
X92738000Y-95879300D03*
%TD*%
M02*
